<?xml version="1.0" encoding="UTF-8" standalone="no"?>
<!-- Created with Inkscape (http://www.inkscape.org/) -->

<svg
   width="33.079998mm"
   height="10.000004mm"
   viewBox="0 0 33.079998 10.000004"
   version="1.1"
   id="svg1"
   xml:space="preserve"
   xmlns="http://www.w3.org/2000/svg"
   xmlns:svg="http://www.w3.org/2000/svg"><defs
     id="defs1" /><g
     id="layer1"
     transform="translate(-79.288141,-143.5)"><g
       id="g6"><g
         gorn="0.3"
         id="silkscreen"
         transform="matrix(0.26458333,0,0,0.26458333,79.288142,143.5)">
        <rect
   width="124.06677"
   gorn="0.3.0"
   x="0.47999996"
   style="opacity:1;fill:none;fill-opacity:1;fill-rule:nonzero;stroke:#000000;stroke-width:0.96;stroke-linecap:butt;stroke-linejoin:miter;stroke-miterlimit:4;stroke-dasharray:none;stroke-opacity:0.941176"
   height="36.835274"
   id="rect4895"
   y="0.47999996" />
    </g><path
         gorn="0.4.0.0.0"
         style="fill:#e5ab6b;stroke:#6b6b6a;stroke-width:0.0529167"
         id="path6"
         d="m 110.32588,149.86 c 0,0.44177 0.34848,0.79904 0.77714,0.79904 h 1.20194 v -1.59808 h -1.20194 c -0.42866,0.001 -0.77714,0.35896 -0.77714,0.79904 z" /><path
         gorn="0.4.0.0.1"
         style="fill:#e5ab6b;stroke:#6b6b6a;stroke-width:0.0529167"
         id="path8"
         d="m 110.32587,147.32051 c 0,0.441 0.34849,0.79853 0.77714,0.79853 h 1.20195 v -1.59808 h -1.20195 c -0.42865,0 -0.77714,0.35787 -0.77714,0.79955 z" /><path
         gorn="0.4.0.0.2"
         style="fill:#e5ab6b;stroke:#6b6b6a;stroke-width:0.0529167"
         id="connector3pin"
         d="m 110.32588,144.77983 c 0,0.44134 0.34848,0.79921 0.77714,0.79921 h 1.20194 v -1.59808 h -1.20194 c -0.42866,-3.4e-4 -0.77714,0.35753 -0.77714,0.79887 z" /><circle
         gorn="0.4.0.0.3"
         r="0.41909999"
         style="fill:none;stroke:#ffbf00;stroke-width:0.24384"
         cy="149.86006"
         cx="111.26124"
         id="connector5pin" /><path
         gorn="0.4.0.0.0"
         style="fill:#e5ab6b;stroke:#6b6b6a;stroke-width:0.0529167"
         id="path6-5"
         d="m 110.32588,152.39999 c 0,0.44178 0.34848,0.79905 0.77714,0.79905 h 1.20194 v -1.59809 h -1.20194 c -0.42866,10e-4 -0.77714,0.35896 -0.77714,0.79904 z" /><circle
         gorn="0.4.0.0.3"
         r="0.41909999"
         style="fill:none;stroke:#ffbf00;stroke-width:0.24384"
         cy="152.40005"
         cx="111.26123"
         id="connector5pin-1" /><circle
         gorn="0.4.0.0.4"
         r="0.41909999"
         style="fill:none;stroke:#ffbf00;stroke-width:0.24384"
         cy="147.31993"
         cx="111.26124"
         id="connector6pin" /><circle
         gorn="0.4.0.0.5"
         r="0.41909999"
         style="fill:none;stroke:#ffbf00;stroke-width:0.24384"
         cy="144.77994"
         cx="111.26124"
         id="connector4pin" /><path
         gorn="0.4.0.0.0"
         style="fill:#e5ab6b;stroke:#6b6b6a;stroke-width:0.0529167"
         id="path6-9"
         d="m 81.342529,147.32 c 0,-0.44177 -0.348486,-0.79904 -0.77714,-0.79904 h -1.201944 v 1.59808 h 1.201944 c 0.428654,-0.001 0.77714,-0.35896 0.77714,-0.79904 z" /><path
         gorn="0.4.0.0.1"
         style="fill:#e5ab6b;stroke:#6b6b6a;stroke-width:0.0529167"
         id="path8-2"
         d="m 81.342534,149.85949 c 0,-0.441 -0.348485,-0.79853 -0.777139,-0.79853 h -1.201944 v 1.59808 h 1.201944 c 0.428654,0 0.777139,-0.35787 0.777139,-0.79955 z" /><path
         gorn="0.4.0.0.2"
         style="fill:#e5ab6b;stroke:#6b6b6a;stroke-width:0.0529167"
         id="connector3pin-5"
         d="m 81.342529,152.40017 c 0,-0.44134 -0.348486,-0.79921 -0.77714,-0.79921 h -1.201944 v 1.59808 h 1.201944 c 0.428654,2.7e-4 0.77714,-0.35753 0.77714,-0.79887 z" /><circle
         gorn="0.4.0.0.3"
         r="0.41909999"
         style="fill:none;stroke:#ffbf00;stroke-width:0.24384"
         cy="-147.31993"
         cx="-80.407173"
         id="connector5pin-4"
         transform="scale(-1)" /><path
         gorn="0.4.0.0.0"
         style="fill:#e5ab6b;stroke:#6b6b6a;stroke-width:0.0529167"
         id="path6-5-5"
         d="m 81.342529,144.78 c 0,-0.44177 -0.348486,-0.79904 -0.77714,-0.79904 h -1.201944 v 1.59809 h 1.201944 c 0.428654,-0.001 0.77714,-0.35896 0.77714,-0.79905 z" /><circle
         gorn="0.4.0.0.3"
         r="0.41909999"
         style="fill:none;stroke:#ffbf00;stroke-width:0.24384"
         cy="-144.77994"
         cx="-80.407181"
         id="connector5pin-1-4"
         transform="scale(-1)" /><circle
         gorn="0.4.0.0.4"
         r="0.41909999"
         style="fill:none;stroke:#ffbf00;stroke-width:0.24384"
         cy="-149.86006"
         cx="-80.407173"
         id="connector6pin-7"
         transform="scale(-1)" /><circle
         gorn="0.4.0.0.5"
         r="0.41909999"
         style="fill:none;stroke:#ffbf00;stroke-width:0.24384"
         cy="-152.40007"
         cx="-80.407173"
         id="connector4pin-7"
         transform="scale(-1)" /></g></g></svg>
