<?xml version="1.0" encoding="UTF-8" standalone="no"?>
<!-- Created with Inkscape (http://www.inkscape.org/) -->

<svg
   width="33.361198mm"
   height="10.2018mm"
   viewBox="0 0 33.361198 10.2018"
   version="1.1"
   id="svg1"
   xml:space="preserve"
   xmlns="http://www.w3.org/2000/svg"
   xmlns:svg="http://www.w3.org/2000/svg"><defs
     id="defs1" /><g
     id="layer1"
     transform="translate(-77.248011,-143.49745)"><g
       id="g6"
       transform="translate(-1.8592854,-3.5857648)"><g
         id="g8"><g
           gorn="0.3"
           id="silkscreen"
           transform="matrix(0.26458333,0,0,0.26992276,79.235334,147.08321)">
        <rect
   width="124.06677"
   gorn="0.3.0"
   x="0.47999996"
   style="opacity:1;fill:none;fill-opacity:1;fill-rule:nonzero;stroke:#000000;stroke-width:0.96;stroke-linecap:butt;stroke-linejoin:miter;stroke-miterlimit:4;stroke-dasharray:none;stroke-opacity:0.941176"
   height="36.835274"
   id="rect4895"
   y="0.47999996" />
    </g><g
           id="copper0"
           transform="matrix(0.26458333,0,0,0.26458333,79.235334,147.08577)"><g
             id="copper1"><path
               gorn="0.4.0.0.0"
               style="fill:#e5ab6b;stroke:#6b6b6a;stroke-width:0.2"
               id="path6"
               d="m 118.02566,24.037751 c 0,1.669687 1.31711,3.020001 2.9372,3.020001 h 4.54278 v -6.040001 h -4.54278 c -1.62009,0.0038 -2.9372,1.356701 -2.9372,3.02 z" /><path
               gorn="0.4.0.0.1"
               style="fill:#e5ab6b;stroke:#6b6b6a;stroke-width:0.2"
               id="path8"
               d="m 118.02565,14.439667 c 0,1.666779 1.31711,3.018084 2.93722,3.018084 h 4.54278 v -6.04 h -4.54278 c -1.62011,0 -2.93722,1.352582 -2.93722,3.021916 z" /><path
               gorn="0.4.0.0.2"
               style="fill:#e5ab6b;stroke:#6b6b6a;stroke-width:0.2"
               id="connector3pin"
               d="m 118.02566,4.8371134 c 0,1.668056 1.31711,3.020638 2.9372,3.020638 h 4.54278 V 1.8177525 h -4.54278 c -1.62009,-0.00128 -2.9372,1.3513045 -2.9372,3.0193609 z" /><circle
               gorn="0.4.0.0.3"
               r="1.584"
               style="fill:none;stroke:#ffbf00;stroke-width:0.9216"
               cy="24.038002"
               cx="121.56757"
               id="connector5pin" /><path
               gorn="0.4.0.0.0"
               style="fill:#e5ab6b;stroke:#6b6b6a;stroke-width:0.2"
               id="path6-3"
               d="m 118.02565,33.637501 c 0,1.669687 1.31711,3.020001 2.93722,3.020001 h 4.54278 v -6.040001 h -4.54278 c -1.62011,0.0038 -2.93722,1.356701 -2.93722,3.02 z" /><circle
               gorn="0.4.0.0.3"
               r="1.584"
               style="fill:none;stroke:#ffbf00;stroke-width:0.9216"
               cy="33.637753"
               cx="121.55414"
               id="connector5pin-3" /><circle
               gorn="0.4.0.0.4"
               r="1.584"
               style="fill:none;stroke:#ffbf00;stroke-width:0.9216"
               cy="14.437502"
               cx="121.56757"
               id="connector6pin" /><circle
               gorn="0.4.0.0.5"
               r="1.584"
               style="fill:none;stroke:#ffbf00;stroke-width:0.9216"
               cy="4.8375015"
               cx="121.56757"
               id="connector4pin" /><path
               gorn="0.4.0.0.0"
               style="fill:#e5ab6b;stroke:#6b6b6a;stroke-width:0.2"
               id="path6-8"
               d="m 7.0960755,14.437756 c 0,-1.66969 -1.31711,-3.02001 -2.9372,-3.02001 h -4.54277995 v 6.04001 H 4.1588755 c 1.62009,-0.004 2.9372,-1.35671 2.9372,-3.02 z" /><path
               gorn="0.4.0.0.1"
               style="fill:#e5ab6b;stroke:#6b6b6a;stroke-width:0.2"
               id="path8-0"
               d="m 7.0960855,24.035836 c 0,-1.66678 -1.31711,-3.01808 -2.93722,-3.01808 h -4.54277995 v 6.04 H 4.1588655 c 1.62011,0 2.93722,-1.35259 2.93722,-3.02192 z" /><path
               gorn="0.4.0.0.2"
               style="fill:#e5ab6b;stroke:#6b6b6a;stroke-width:0.2"
               id="connector3pin-1"
               d="m 7.0960755,33.638386 c 0,-1.66805 -1.31711,-3.02063 -2.9372,-3.02063 h -4.54277995 v 6.03999 H 4.1588755 c 1.62009,10e-4 2.9372,-1.3513 2.9372,-3.01936 z" /><circle
               gorn="0.4.0.0.3"
               r="1.584"
               style="fill:none;stroke:#ffbf00;stroke-width:0.9216"
               cy="-14.437503"
               cx="-3.5541632"
               id="connector5pin-4"
               transform="scale(-1)" /><path
               gorn="0.4.0.0.0"
               style="fill:#e5ab6b;stroke:#6b6b6a;stroke-width:0.2"
               id="path6-3-2"
               d="m 7.0960855,4.8380061 c 0,-1.669691 -1.31711,-3.020005 -2.93722,-3.020005 h -4.54277995 v 6.040005 H 4.1588655 c 1.62011,-0.004 2.93722,-1.35671 2.93722,-3.02 z" /><circle
               gorn="0.4.0.0.3"
               r="1.584"
               style="fill:none;stroke:#ffbf00;stroke-width:0.9216"
               cy="-4.8377485"
               cx="-3.5675986"
               id="connector5pin-3-1"
               transform="scale(-1)" /><circle
               gorn="0.4.0.0.4"
               r="1.584"
               style="fill:none;stroke:#ffbf00;stroke-width:0.9216"
               cy="-24.037996"
               cx="-3.5541632"
               id="connector6pin-7"
               transform="scale(-1)" /><circle
               gorn="0.4.0.0.5"
               r="1.584"
               style="fill:none;stroke:#ffbf00;stroke-width:0.9216"
               cy="-33.638004"
               cx="-3.5541632"
               id="connector4pin-5"
               transform="scale(-1)" /></g></g></g></g></g></svg>
